<svg xmlns="http://www.w3.org/2000/svg" viewBox="0 0 261 261"><defs><filter id="a" x="0" y="0" width="261" height="261" filterUnits="userSpaceOnUse"><feOffset dy="2"/><feGaussianBlur stdDeviation="7.5" result="blur"/><feFlood flood-opacity=".1"/><feComposite operator="in" in2="blur"/><feComposite in="SourceGraphic"/></filter></defs><g data-name="Group 24665"><g filter="url(#a)" data-name="Group 24458"><circle data-name="Ellipse 34" cx="108" cy="108" r="108" transform="translate(22.5 20.5)" fill="#fff"/></g><path data-name="Path 4649" d="m130.78 159.06-75.87-43.78v27.3l75.8 43.74 75.31-43.74v-27.3Z" fill="#fff"/><path data-name="Path 4650" d="M196.6 123.85c2.7-1.71 6.4-3.25 6.2.53a3.42 3.42 0 0 1-.94 2.13 4.32 4.32 0 0 1-1.96 1.26 6.36 6.36 0 0 0-3.26 2.8 7.63 7.63 0 0 0-.94 3.54c0 .77.24 3.46 2.38 2.17a3.33 3.33 0 0 0 .7-.53 3.12 3.12 0 0 0 1.05-2.06l-.91.56c-1.05.66-1.05-1.16-1.05-1.23.03-2 .98-2.62 1.05-2.62l3.7-2.31c.08-.04 1.13-.7 1.1 1.26-.15 6.68-1.83 11.51-6.34 14.24-3.4 2.03-6.93.04-6.93-6.2 0-6.3 2.66-11.33 6.16-13.54m-96.45 20.44a18.46 18.46 0 0 1 8.4 15.33c-.04 6.23-3.82 8.01-8.5 5.18a18.23 18.23 0 0 1-8.2-15.12c.04-6.4 3.72-8.16 8.3-5.39m.35 13.44c1.44.7 2.1-.39 1.96-2.1a5.27 5.27 0 0 0-2.45-4.34c-1.5-.74-2.06.38-1.92 2.13a5.11 5.11 0 0 0 2.41 4.3m24.92 1.2a2.36 2.36 0 0 0-2.7 0l-3.42 2.65-3.75-7a6.93 6.93 0 0 0-2.45-2.83 3.33 3.33 0 0 0-1.64-.53c-1.86 0-1.93 2.52-1.93 2.84l-.07 12.14a6.2 6.2 0 0 0 2.9 5.74 1.64 1.64 0 0 0 .84.25c1.58 0 2.03-2.77 2.03-4.38v-1.96l3.01 4.94a2.06 2.06 0 0 0 .8.84 1.1 1.1 0 0 0 1.33-.21l2.31-1.58-.03 3.36c0 2.2.24 5.25 2.38 6.44a3.33 3.33 0 0 0 1.64.53c1.4 0 1.93-1.54 1.93-2.84l.07-12.5c-.04-.41-.1-4.09-3.26-5.9m-54.45-21.25a7.32 7.32 0 0 1 2.69 5.84c-.03 3.26-1.82 4.48-6.16 1.93l-5.91-3.47A7.16 7.16 0 0 1 57.9 136l.07-11.86c0-.14 0-3.89 3.71-1.72l5.92 3.47c4.37 2.55 6.12 5.8 6.09 9.06 0 1.44-.21 3.4-2.73 2.73M66 139.7c.94.53 1.29 0 1.29-.63a2.57 2.57 0 0 0-1.22-2.24l-1.79-1.02-.03 2.9 1.75.98m.1-6.89c.8.5 1.22.04 1.22-.8a2.54 2.54 0 0 0-1.3-2.13l-1.71-.98v2.9l1.79 1.01m16.86 1.86c4.7 2.83 8.23 8.92 8.2 15.32-.04 6.23-3.6 7.98-8.34 5.15a18.71 18.71 0 0 1-8.47-15.26c.04-6.37 4.03-7.98 8.61-5.21m.07 13.3c1.47.63 2.07-.5 1.82-2.2a5.1 5.1 0 0 0-2.73-4.17c-1.54-.66-2.06.53-1.82 2.28a5.25 5.25 0 0 0 2.73 4.1m96.6-13.87a1.37 1.37 0 0 1 1.85.28l3.32 4.13v-3.46c0-.14-.35-3.85 2.07-5.25 2.45-1.44 2.45 2.3 2.45 2.45l.03 12.14c0 .18 0 3.89-2.41 5.29-.5.28-.95.17-1.44-.42l-3.36-4.27v3.67c0 .18 0 3.89-2.41 5.29s-2.42-2.31-2.42-2.49l-.03-12.1c-.07-.15-.07-3.86 2.34-5.26m-36.85 21.56c.21-.1 2.45-1.36 2.45 1.58a5.05 5.05 0 0 1-2.45 4.44l-4.13 2.38v1.72l4.27-2.49c.74-.42 1.61-.45 1.61 1.05a3.3 3.3 0 0 1-1.6 3.01l-4.28 2.49v1.71l4.13-2.38c.21-.1 2.45-1.36 2.45 1.58a5.05 5.05 0 0 1-2.45 4.44l-6.86 3.96c-3.32 1.92-3.29-1.82-3.29-2l-.03-11.83a6.92 6.92 0 0 1 3.46-5.84l6.72-3.82Zm33.42-5.28a4.39 4.39 0 0 1 .5 1.96 6.03 6.03 0 0 1-2.74 4.83 1.34 1.34 0 0 1-2.03-.63l-.49-1.23-4.97 2.87-.63 2.31a5.5 5.5 0 0 1-2.03 2.98 1.92 1.92 0 0 1-3-1.82 6.83 6.83 0 0 1 .41-2.24l5.11-15.82a5.39 5.39 0 0 1 2.28-3.12c1.54-.87 2.38-.07 2.62.35Zm-8.5 3.08 3.01-1.65-1.43-4.55-1.58 6.2m-37.4-81.93 75.8 43.75-75.31 43.78-75.8-43.78Z"/><path data-name="Path 4651" d="m170.71 104.32-34.4-19.49-3.22-1.82a10.54 10.54 0 0 0-8.57.67l-47.46 27.6s-4.37 2.32-1.19 4.98l38.92 22.43c11.44 6.83 24.04 7.67 34.68 1.96 7-3.74 7-10.15 3.5-14.28a27.59 27.59 0 0 0 19.95-2.13c11.13-5.95 9.9-13.06-2.2-19.92" fill="#fff"/><path data-name="Path 4652" d="m145.83 107.44-5.7-3.26a2 2 0 0 1-.25-.14 2.54 2.54 0 0 0-2.41-.31l-.46.24-.07.07-4.72 2.63v.03s-1.12.88 0 1.61h.03l5.92 3.43c2.9 1.68 5.95 1.9 8.47.5 2.52-1.48 2.13-3.12-.8-4.8m-20.03 12.35-6.68-3.92a1.7 1.7 0 0 1-.46-.2 2.57 2.57 0 0 0-1.92-.46l-6.3 3.5a.8.8 0 0 0 .31 1.26l7.1 4.2a8.57 8.57 0 0 0 8.33.42c2.52-1.37 2.42-3.15-.38-4.8m32.3 36.71c2.03-.2 1.99 1.2 1.99 3.6v1.4a6.46 6.46 0 0 1-3.01 5.43c-2.97 1.71-2.48-2.31-2.48-2.49v-2.62c0-1.5-.35-1.61-.7-1.4l-1.5 1.08v4.52a6.55 6.55 0 0 1-2.94 5.32c-2.87 1.64-2.98-1.72-2.98-1.9l-.03-12.1a6.94 6.94 0 0 1 3.43-5.85l5.45-3.22c4.06-2.34 5.18-.73 5.22 2.49a7.56 7.56 0 0 1-2.45 5.74m-3.89.24a2.54 2.54 0 0 0 1.16-2.17c0-.63-.35-1.6-1.23-1.12l-2.24 1.44v3.32l1.61-.98m49.94-18.8h-.2v-.1h.59v.1h-.21v.78h-.18Zm.46-.1h.2l.18.67.18-.67h.2v.88h-.13v-.74l-.18.74h-.14l-.17-.74v.74h-.14Z"/></g></svg>