<svg xmlns="http://www.w3.org/2000/svg" viewBox="0 0 261 261"><defs><filter id="a" x="0" y="0" width="261" height="261" filterUnits="userSpaceOnUse"><feOffset dy="2"/><feGaussianBlur stdDeviation="7.5" result="blur"/><feFlood flood-opacity=".1"/><feComposite operator="in" in2="blur"/><feComposite in="SourceGraphic"/></filter></defs><g data-name="Group 24666"><g filter="url(#a)" data-name="Group 24458"><circle data-name="Ellipse 34" cx="108" cy="108" r="108" transform="translate(22.5 20.5)" fill="#fff"/></g><path data-name="Path 4664" d="M128.49 85.26h72.76v72.77H128.5Z" fill="#fff"/><path data-name="Path 4665" d="M128.49 85.26h72.76v72.77H128.5Z" fill="#fff"/><path data-name="Path 4666" d="M55.72 85.26h72.77v72.77H55.72Z"/><path data-name="Path 4667" d="M104.3 127.45a11.69 11.69 0 1 1 0-11.58l18.05-10.32a32.47 32.47 0 1 0 0 32.22Z" fill="#fff"/><path data-name="Path 4668" d="M196.06 152.83V90.46h-20.81v26l-20.79-26h-20.78v62.38h20.79v-25.98l20.78 25.98Zm-30.79 16.92 1.07 2.39h2.47l1.68-8.91h-2.98l-.76 3.92-1.48-3.61-1.48 3.6-.73-3.91h-3.01l1.72 8.9h2.46Zm-5.92-6.52h-8.91v2.6h2.78v6.3h3.32v-6.3h2.8Zm16-.19a4.65 4.65 0 1 0 4.65 4.65 4.65 4.65 0 0 0-4.65-4.65Zm0 6.32a1.66 1.66 0 1 1 1.66-1.67 1.67 1.67 0 0 1-1.66 1.67Zm-34.94 2.78v-8.91h-2.96v3.71l-3-3.71h-2.95v8.9h2.96v-3.7l2.99 3.7Zm9.04-6.32v-2.6h-7.8v8.92h7.8v-2.42h-4.83v-.88h4.1v-2.24h-4.1v-.78Zm39.95.58a3.19 3.19 0 0 0-3.35-3.15h-5.2v8.91h2.97v-2.6h.93l1.3 2.6h3.33l-1.76-2.96a3.2 3.2 0 0 0 1.79-2.8Zm-5.56-.58h1.85a.75.75 0 1 1 0 1.51h-1.85Zm15.49-2.6h-3.82l-2.2 2.94v-2.94h-2.97v8.92h2.96v-3.33l2.2 3.33h3.83l-3.46-4.63ZM73.8 172.16h3.14l-2.78-8.91h-4.44l-2.78 8.91h3.17l.42-1.48h2.85l.42 1.48Zm-2.62-3.72.78-2.72.78 2.72Zm24.89-5.2h-8.92v2.6h2.78v6.32h3.35v-6.31h2.78Zm-31.72 5.33a1.84 1.84 0 1 1-1.59-2.75 1.8 1.8 0 0 1 1.59.93l2.41-1.4a4.65 4.65 0 1 0 0 4.63Zm36.73-5.53a4.65 4.65 0 1 0 4.65 4.65 4.64 4.64 0 0 0-4.65-4.65Zm0 6.31a1.66 1.66 0 1 1 1.66-1.66 1.66 1.66 0 0 1-1.66 1.67Zm10.03-6.31a4.65 4.65 0 1 0 4.65 4.65 4.64 4.64 0 0 0-4.65-4.65Zm0 6.31a1.66 1.66 0 1 1 1.66-1.66 1.66 1.66 0 0 1-1.66 1.67Zm14.42 2.8v-8.9h-2.97v3.68l-2.96-3.68h-2.99v8.91h3v-3.72l2.95 3.72Zm-39.15-5.76a3.19 3.19 0 0 0-3.36-3.14h-5.2v8.91h2.97v-2.6h.93l1.3 2.6h3.35l-1.76-2.96a3.19 3.19 0 0 0 1.76-2.8Zm-5.59-.55h1.84a.75.75 0 0 1 0 1.51H80.8Zm121.9 3.88v.44h-.73v2.03h-.52v-2.03h-.73v-.44Zm1.94 0h.73v2.47h-.47v-2.08l-.47 2.05h-.5l-.46-2.05v2.08H203v-2.47h.76l.44 1.92.44-1.92Z"/></g></svg>