<svg xmlns="http://www.w3.org/2000/svg" viewBox="0 0 261 261"><defs><filter id="a" x="0" y="0" width="261" height="261" filterUnits="userSpaceOnUse"><feOffset dy="2"/><feGaussianBlur stdDeviation="7.5" result="b"/><feFlood flood-opacity=".1"/><feComposite operator="in" in2="b"/><feComposite in="SourceGraphic"/></filter></defs><g filter="url(#a)"><circle cx="108" cy="108" r="108" transform="translate(22.5 20.5)" fill="#fff"/></g><g fill="#e45e25"><path d="M206.36 137.25h-.57v-.3h1.48v.3h-.57v1.59h-.34Zm1.34-.32h.06l.91 1.02.91-1.02h.07v1.93h-.34v-1.19l-.6.7h-.06l-.6-.7v1.19h-.33v-1.93h-.02ZM62.42 124.68a7.38 7.38 0 0 0-7.4 7.4v6.78h5.62v-6.65a3.76 3.76 0 0 1 .53-2.03 1.38 1.38 0 0 1 2.54 0 3.96 3.96 0 0 1 .53 2.03v6.65h5.62v-6.78a7.38 7.38 0 0 0-7.44-7.4m134.64 0a7.38 7.38 0 0 0-7.4 7.4v6.78h5.62v-6.66a3.76 3.76 0 0 1 .53-2.03 1.38 1.38 0 0 1 2.54 0 3.96 3.96 0 0 1 .53 2.03v6.66h5.58v-6.78a7.4 7.4 0 0 0-2.17-5.23 7.23 7.23 0 0 0-5.23-2.16M75.9 122.86a3.11 3.11 0 0 0-2.2-5.31 3.04 3.04 0 0 0-2.2.9 3.13 3.13 0 0 0 0 4.41l.7.7c1.14 1.15 1.22 1.47.14 2.57l-.63.63a2.85 2.85 0 0 0-.83 2.02v10.08h5.68v-10.1a2.85 2.85 0 0 0-.83-2.02l-.63-.63c-1.1-1.1-1.02-1.4.15-2.57l.65-.68Zm10.06 11.6a1.32 1.32 0 0 1-2.54 0 5.14 5.14 0 0 1-.53-2.36 4.89 4.89 0 0 1 .53-2.35 1.32 1.32 0 0 1 2.54 0 5.22 5.22 0 0 1 .49 1.65h5.63a7.41 7.41 0 1 0 0 1.4h-5.63a4.32 4.32 0 0 1-.49 1.66Zm27.7-9.8a7.4 7.4 0 1 0 5.3 12.57 6.58 6.58 0 0 0 1.62-3.67h-5.02s-.7 1.76-1.89 1.76a1.54 1.54 0 0 1-1.27-.97 4.48 4.48 0 0 1-.47-1.5h8.73a7.5 7.5 0 0 0-1.78-5.98 7.34 7.34 0 0 0-5.23-2.2Zm-1.64 6.1a7.48 7.48 0 0 1 .36-1.1 1.6 1.6 0 0 1 1.27-.97c.5 0 .91.36 1.27 1a4.46 4.46 0 0 1 .36 1.06Zm54.28-6.1a7.4 7.4 0 1 0 5.3 12.57 6.58 6.58 0 0 0 1.63-3.67h-5.02s-.7 1.76-1.89 1.76a1.54 1.54 0 0 1-1.27-.97 4.48 4.48 0 0 1-.46-1.5h8.73a7.5 7.5 0 0 0-1.78-5.98 7.34 7.34 0 0 0-5.24-2.2Zm-1.63 6.1a7.48 7.48 0 0 1 .36-1.1 1.6 1.6 0 0 1 1.27-.97c.5 0 .91.36 1.27 1a4.46 4.46 0 0 1 .36 1.06Zm-40.4-13.28a2.82 2.82 0 0 0-2.82 2.82v18.54h5.61V120.3a2.79 2.79 0 0 0-2.8-2.82m11.02 7.2a7.42 7.42 0 1 0 7.41 7.42 7.42 7.42 0 0 0-7.4-7.42Zm0 10.75c-1 0-1.78-1.5-1.78-3.35s.8-3.33 1.78-3.33c1 0 1.78 1.5 1.78 3.33 0 1.84-.8 3.35-1.78 3.35Zm46.25-10.75a7.42 7.42 0 1 0 7.42 7.42 7.42 7.42 0 0 0-7.42-7.42Zm0 10.74c-1 0-1.78-1.5-1.78-3.34s.8-3.33 1.78-3.33 1.78 1.5 1.78 3.33c.02 1.84-.78 3.35-1.78 3.35Zm-23.34-3.34V120.3a2.82 2.82 0 1 0-5.64 0v4.6a7.06 7.06 0 0 0-1.78-.21 7.4 7.4 0 0 0-5.23 12.63 7.42 7.42 0 0 0 10.46 0 7.34 7.34 0 0 0 2.19-5.24Zm-7.42 3.35c-1 0-1.78-1.5-1.78-3.35s.8-3.32 1.78-3.32c1 0 1.78 1.5 1.78 3.32 0 1.84-.8 3.35-1.78 3.35Z"/><path d="M107.06 137.86a1.02 1.02 0 0 0-.15-.5l-3.07-4.66 2.14-3.88a2.82 2.82 0 0 0-4.85-2.86l-2.54 4.55v-3.03a2.82 2.82 0 0 0-5.64 0v11.38h5.62v-4.45l2.96 4.45h4.53a1 1 0 0 0 1-1Z"/></g></svg>