<svg xmlns="http://www.w3.org/2000/svg" viewBox="0 0 261 261"><defs><filter id="a" x="0" y="0" width="261" height="261" filterUnits="userSpaceOnUse"><feOffset dy="2"/><feGaussianBlur stdDeviation="7.5" result="blur"/><feFlood flood-opacity=".1"/><feComposite operator="in" in2="blur"/><feComposite in="SourceGraphic"/></filter></defs><g data-name="Group 24703"><g filter="url(#a)" data-name="Group 24458"><circle data-name="Ellipse 34" cx="108" cy="108" r="108" transform="translate(22.5 20.5)" fill="#fff"/></g><path data-name="Path 4704" d="M131.98 123.75h-10.62a3.38 3.38 0 1 0 .03 6.77h1.91v10.31h6.77v-10.31h1.91a3.38 3.38 0 1 0 0-6.77m69.01 7.63c-2.55-1.12-3.88-1.55-3.93-2.47-.05-.82.84-.97 1.15-.97 1.79 0 1.94 1.81 1.94 2.25h5.49c0-3.12-2.81-6.34-7.61-6.34-4.11 0-6.92 2.81-6.92 5.47 0 1 .46 3 4.9 5 2.55 1.12 3.88 1.55 3.93 2.47.05.82-.84 1.05-1.15 1.05-1.78 0-1.94-1.89-1.94-2.32h-5.48c0 3.11 2.8 6.33 7.6 6.33 4.14 0 6.92-2.81 6.92-5.47.03-1.02-.43-3-4.9-5" fill="#f04e4a"/><path data-name="Path 4705" d="M92.49 135.52c-.41.74-.92 1.18-1.5 1.18a1.8 1.8 0 0 1-1.51-1.18 6.2 6.2 0 0 1-.64-2.83 5.89 5.89 0 0 1 .64-2.84c.4-.74.91-1.17 1.5-1.17a1.8 1.8 0 0 1 1.5 1.17 6.3 6.3 0 0 1 .6 2h6.76a8.9 8.9 0 1 0 0 1.68h-6.76a6.3 6.3 0 0 1-.6 1.99m-28.3-11.77a8.9 8.9 0 0 0-8.91 8.9v8.2h6.76v-8.04a4.54 4.54 0 0 1 .64-2.45 1.86 1.86 0 0 1 1.5-1.02 1.8 1.8 0 0 1 1.51 1.02 4.77 4.77 0 0 1 .64 2.45v8.05h6.77v-8.2a8.92 8.92 0 0 0-2.6-6.3 9.03 9.03 0 0 0-6.31-2.6m52.26 5a3.38 3.38 0 0 0-5.82-3.43l-3.07 5.5v-3.68a3.4 3.4 0 0 0-6.79 0v13.7h6.77v-5.4l3.57 5.51h5.6c1 0 1.45-1 .63-2.22l-3.47-5.36Zm-36.07-7.2a3.75 3.75 0 0 0 1.1-2.66 3.66 3.66 0 0 0-1.1-2.65 3.75 3.75 0 0 0-2.66-1.1 3.66 3.66 0 0 0-2.65 1.1 3.76 3.76 0 0 0 0 5.3l.84.85c1.38 1.38 1.48 1.76.18 3.06l-.77.77a3.44 3.44 0 0 0-1 2.42v12.23h6.84v-12.23a3.48 3.48 0 0 0-1-2.42l-.76-.77c-1.32-1.33-1.22-1.68.18-3.06l.79-.84Z" fill="#f68b1f"/><path data-name="Path 4706" d="M187.38 126.38a8.81 8.81 0 0 0-6.3-2.6 8.9 8.9 0 0 0-8.92 8.9v8.18h6.8v-8.02a4.54 4.54 0 0 1 .63-2.45 1.66 1.66 0 0 1 3.06 0 4.77 4.77 0 0 1 .64 2.45v8.02h6.8v-8.17a9.52 9.52 0 0 0-2.7-6.31m-18.72.02a8.94 8.94 0 0 0-12.61 0 8.81 8.81 0 0 0-2.6 6.3 8.92 8.92 0 0 0 2.6 6.32c.15.15.5.46.5.48a8.95 8.95 0 0 0 5.8 2.14 9.07 9.07 0 0 0 5.8-2.11c.03-.03.4-.34.54-.49a8.88 8.88 0 0 0-.02-12.64m-4.78 9.14a1.59 1.59 0 0 1-3.06 0 6.61 6.61 0 0 1 0-5.66 1.59 1.59 0 0 1 3.06 0 6.2 6.2 0 0 1 .64 2.83 6.54 6.54 0 0 1-.64 2.83m-13.6-9.14a8.94 8.94 0 0 0-12.61 0 8.81 8.81 0 0 0-2.6 6.3 8.92 8.92 0 0 0 2.6 6.32c.15.15.5.46.5.48a8.95 8.95 0 0 0 5.8 2.14 9.07 9.07 0 0 0 5.8-2.11c.03-.03.39-.34.54-.49a8.88 8.88 0 0 0-.02-12.64m-4.78 9.14a1.59 1.59 0 0 1-3.06 0 6.2 6.2 0 0 1-.64-2.83 5.89 5.89 0 0 1 .64-2.84 1.59 1.59 0 0 1 3.06 0 6.2 6.2 0 0 1 .64 2.84 6.54 6.54 0 0 1-.64 2.83" fill="#f04e4a"/><g data-name="Group 24682"><path data-name="Path 4707" d="M207.37 124.72h-.69v-.36h1.79v.36h-.69v1.92h-.4Zm1.58-.4h.08l1.1 1.22 1.1-1.23h.08v2.33h-.41v-1.43l-.72.84h-.07l-.74-.84v1.43h-.41Z" fill="#f04e4a"/></g></g></svg>