<svg xmlns="http://www.w3.org/2000/svg" viewBox="0 0 261 261"><defs><filter id="a" x="0" y="0" width="261" height="261" filterUnits="userSpaceOnUse"><feOffset dy="2"/><feGaussianBlur stdDeviation="7.5" result="blur"/><feFlood flood-opacity=".1"/><feComposite operator="in" in2="blur"/><feComposite in="SourceGraphic"/></filter></defs><g data-name="Group 24701"><g filter="url(#a)" data-name="Group 24458"><circle data-name="Ellipse 34" cx="108" cy="108" r="108" transform="translate(22.5 20.5)" fill="#fff"/></g><path data-name="Path 4699" d="M170.79 118.96a5.26 5.26 0 1 0-5.26-5.26 5.25 5.25 0 0 0 5.26 5.26m5.3 18.86c0 6.5-3.17 10.68-10.75 10.68h-.29a14.63 14.63 0 0 1-7.18-1.8c-3.01-1.94-4.98-5.15-3.01-8.52 1.84-3.13 8.27-3.69 9.23 1.73.32 1.88 1.33 1.64 1.33-.12v-12.93c0-3.85 2.36-6.26 5.33-6.26a5.34 5.34 0 0 1 5.34 5.34v11.88Zm13.29 9.67v-14.33a3.77 3.77 0 0 1 1.84-3.25c1.25-.48 2.33.08 3.7.57 4.41 1.68 7.86-.57 8.39-3.46a5.3 5.3 0 0 0-4.26-6.18c-3.53-.68-6.06.44-8.95 2.7-.2.15-.76.63-.96.8a5.32 5.32 0 0 0-10.4 1.6v21.55Z" fill="#09bdcb"/><path data-name="Path 4700" d="M198.48 147.77a5.26 5.26 0 1 0-5.25-5.25 5.2 5.2 0 0 0 5.25 5.25" fill="#09bdcb"/><path data-name="Path 4701" d="M69.36 120.64a13.98 13.98 0 0 0-14 14v12.8h10.63v-12.6a7.13 7.13 0 0 1 1-3.84 2.6 2.6 0 0 1 4.82 0 7.5 7.5 0 0 1 1 3.85v12.6h10.64v-12.8a14.02 14.02 0 0 0-4.1-9.92 14.28 14.28 0 0 0-9.99-4.09m25.53-3.45a5.9 5.9 0 0 0-4.17-10.08 5.75 5.75 0 0 0-4.18 1.73 5.92 5.92 0 0 0 0 8.35l1.33 1.32c2.16 2.17 2.32 2.77.28 4.86l-1.2 1.2a5.4 5.4 0 0 0-1.57 3.82v19.14h10.67v-19.18a5.4 5.4 0 0 0-1.56-3.81l-1.2-1.2c-2.09-2.1-1.93-2.65.28-4.86Zm19.06 21.95a2.5 2.5 0 0 1-4.81 0 9.74 9.74 0 0 1-1-4.45 9.26 9.26 0 0 1 1-4.46 2.5 2.5 0 0 1 4.81 0 9.9 9.9 0 0 1 .93 3.14h10.67a14.05 14.05 0 1 0 0 2.64h-10.67a8.7 8.7 0 0 1-.92 3.14Zm39.78 6.5a1.93 1.93 0 0 0-.28-.96l-5.82-8.83 4.05-7.34a5.34 5.34 0 0 0-9.19-5.42l-4.81 8.63v-5.74a5.34 5.34 0 1 0-10.68 0v21.51h10.63v-8.43l5.62 8.43h8.6a1.88 1.88 0 0 0 1.88-1.84Z" fill="#f68b1f"/><g data-name="Group 24680"><path data-name="Path 4702" d="M207.2 122.93h-1.09v-.56h2.81v.56h-1.08v3h-.65Zm2.48-.64h.12l1.73 1.92 1.73-1.92h.12v3.65h-.65v-2.25l-1.12 1.32h-.12l-1.12-1.32v2.25h-.65v-3.65Z" fill="#09bdcb"/></g></g></svg>