<svg xmlns="http://www.w3.org/2000/svg" viewBox="0 0 261 261"><defs><filter id="a" x="0" y="0" width="261" height="261" filterUnits="userSpaceOnUse"><feOffset dy="2"/><feGaussianBlur stdDeviation="7.5" result="blur"/><feFlood flood-opacity=".1"/><feComposite operator="in" in2="blur"/><feComposite in="SourceGraphic"/></filter></defs><g data-name="Group 24700"><g filter="url(#a)" data-name="Group 24458"><circle data-name="Ellipse 34" cx="108" cy="108" r="108" transform="translate(22.5 20.5)" fill="#fff"/></g><path data-name="Path 4708" d="M123.86 124.14a9.55 9.55 0 0 0-6.9 2.85 9.77 9.77 0 0 0-2.85 6.9v9h7.4v-8.87a5.27 5.27 0 0 1 .7-2.73 1.76 1.76 0 0 1 3.3 0 5.1 5.1 0 0 1 .7 2.73v8.87h7.41v-9a9.66 9.66 0 0 0-2.85-6.9 9.77 9.77 0 0 0-6.9-2.85m-20.47 0a9.55 9.55 0 0 0-6.9 2.85 9.77 9.77 0 0 0-2.86 6.9 9.55 9.55 0 0 0 2.85 6.9 9.87 9.87 0 0 0 13.95-.05 8.87 8.87 0 0 0 2.15-4.88h-6.65s-.95 2.34-2.54 2.34a2.12 2.12 0 0 1-1.65-1.26 6.35 6.35 0 0 1-.63-2.03h11.53s.76-4.69-2.34-7.92a9.77 9.77 0 0 0-6.91-2.85m-2.15 8.1a6.47 6.47 0 0 1 .5-1.45 2.06 2.06 0 0 1 1.65-1.27c.7 0 1.2.5 1.71 1.33a5.93 5.93 0 0 1 .44 1.4Zm-18.31-8.1a9.55 9.55 0 0 0-6.9 2.85 9.77 9.77 0 0 0-2.86 6.9 9.55 9.55 0 0 0 2.86 6.9 9.87 9.87 0 0 0 13.93-.05 8.87 8.87 0 0 0 2.15-4.88h-6.71s-.89 2.34-2.54 2.34a2.12 2.12 0 0 1-1.64-1.26 6.35 6.35 0 0 1-.63-2.03h11.59s.76-4.69-2.35-7.92a9.77 9.77 0 0 0-6.9-2.85m-2.16 8.1a6.47 6.47 0 0 1 .5-1.45 2.06 2.06 0 0 1 1.66-1.27c.7 0 1.2.5 1.7 1.33a5.93 5.93 0 0 1 .45 1.4Zm-10.83-8.1H58.3a3.74 3.74 0 0 0 0 7.47h2.09v11.34h7.4v-11.34h2.1a3.74 3.74 0 0 0 3.74-3.74 3.69 3.69 0 0 0-3.68-3.73" fill="#899fb4"/><path data-name="Path 4709" d="M146.1 124.14a9.55 9.55 0 0 0-6.9 2.85 9.77 9.77 0 0 0-2.86 6.9v8.94h7.41v-8.81a5.27 5.27 0 0 1 .7-2.73 1.76 1.76 0 0 1 3.3 0 5.1 5.1 0 0 1 .7 2.73v8.8h7.47v-8.86a9.55 9.55 0 0 0-2.85-6.9 10.1 10.1 0 0 0-6.97-2.92m17.8-2.41a4.12 4.12 0 1 0-5.82 0l.88.89c1.52 1.52 1.65 1.9.2 3.35l-.83.83a3.74 3.74 0 0 0-1.08 2.66v13.36h7.54v-13.3a4.02 4.02 0 0 0-1.08-2.66l-.82-.82c-1.46-1.46-1.33-1.84.19-3.36l.82-.95Zm13.37 15.4a2 2 0 0 1-1.65 1.26c-.7 0-1.2-.5-1.64-1.27a6.6 6.6 0 0 1-.7-3.1 6.43 6.43 0 0 1 .7-3.1 2 2 0 0 1 1.64-1.26 2.12 2.12 0 0 1 1.65 1.26 5.7 5.7 0 0 1 .63 2.22h7.42a9.62 9.62 0 0 0-2.85-6.02 9.77 9.77 0 0 0-6.91-2.85 9.55 9.55 0 0 0-6.9 2.85 9.77 9.77 0 0 0-2.86 6.9 9.55 9.55 0 0 0 2.85 6.91 9.76 9.76 0 0 0 13.24.51 9.65 9.65 0 0 0 3.43-6.52h-7.48a6.02 6.02 0 0 1-.57 2.21m27.75 4.5a1.28 1.28 0 0 0-.2-.7l-4.05-6.14 2.86-5.13a3.71 3.71 0 0 0-6.4-3.74l-3.36 6.02v-4a3.74 3.74 0 0 0-7.48 0v15.01h7.48v-5.89l3.93 5.9h6.01a1.32 1.32 0 0 0 1.2-1.34m1.78-16.15h-.76v-.38h1.96v.38h-.76v2.09h-.44v-2.1Zm1.7-.45h.07l1.2 1.33 1.2-1.33h.06v2.54h-.38v-1.59l-.76.95h-.06l-.76-.95v1.59h-.44v-2.54Z" fill="#df8d2f"/></g></svg>