<svg xmlns="http://www.w3.org/2000/svg" viewBox="0 0 261 261"><defs><filter id="a" x="0" y="0" width="261" height="261" filterUnits="userSpaceOnUse"><feOffset dy="2"/><feGaussianBlur stdDeviation="7.5" result="blur"/><feFlood flood-opacity=".1"/><feComposite operator="in" in2="blur"/><feComposite in="SourceGraphic"/></filter></defs><g data-name="Group 24563"><g filter="url(#a)" data-name="Group 24458"><circle data-name="Ellipse 34" cx="108" cy="108" r="108" transform="translate(22.5 20.5)" fill="#fff"/></g><path data-name="Path 4145" d="M175.88 152.4a1.02 1.02 0 0 1-.2 2.02 24.77 24.77 0 0 0-6.77.35c-1.3.23-2.5-.33-2.5-1.87l-.13-7.46a1 1 0 0 1 1-1.02 1.02 1.02 0 0 1 1.02 1c0 .27.11 6.35.14 7.37a.2.2 0 0 0 .1-.02 26.05 26.05 0 0 1 7.33-.38Zm-12.59-.68a22.41 22.41 0 0 1-5 .58c-.05-.24-.16-1.22-.23-1.6a30.5 30.5 0 0 0 4.56-.42.99.99 0 0 0 .85-.98.96.96 0 0 0-.98-.94c-.94.16-3 .32-4.68.38a63.7 63.7 0 0 1-.15-1.6h.73c.83 0 4.68-.13 5.06-.26a1.01 1.01 0 0 0 .62-1.3 1.03 1.03 0 0 0-1.14-.66c-.37.04-3.27.22-4.52.2-1.22-.03-1.93 0-2.45.49a1.33 1.33 0 0 0-.4.95c0 .05.11 1.92.34 3.77v.04a1.12 1.12 0 0 0 .04.27 9.39 9.39 0 0 0 .72 3.16 2.67 2.67 0 0 0 2.18.47c2.18-.2 4.39 0 5.39-.69a1.14 1.14 0 0 0 .3-1.5c-.21-.46-.68-.46-1.24-.35Zm-9.64-6.63a1 1 0 0 0-1.12-.9 1.04 1.04 0 0 0-.9 1.12l.64 6.28-.87-.8-.16-.13c-.4-.38-1.09-1.12-1.76-1.83-2.6-2.76-2.87-3.05-3.63-2.8-.93.28-.89.93-.66 4.56.1 1.76.24 3.5.24 3.5a1.01 1.01 0 0 0 1 .93h.07a1.02 1.02 0 0 0 .93-1.09c-.1-1.6-.22-3.32-.29-4.6.32.3.6.64.87.9.72.76 1.38 1.48 1.83 1.9l.15.13c1.7 1.6 2.7 2.52 3.68 2.05a1.3 1.3 0 0 0 .73-1.36c-.02-1.2-.7-7.57-.75-7.86Zm-12.1-.67c-.06.47-.28 5.5-.3 7.17l-1.99-2.6c-.64-.88-1.27-1.72-1.76-2.32-.75-.98-1.27-1.63-2.07-1.3-.73.32-.82.6-.8 5.08.02 4.1.1 4.35.14 4.41a1.05 1.05 0 0 0 1.13.67 1 1 0 0 0 .85-1.11c-.02-.51-.1-3.4-.07-5.55l.98 1.3c2.45 3.3 3.03 4 3.52 4.23a1.29 1.29 0 0 0 1.27-.03c.82-.5.84-1.93.84-3.67.03-1.72.27-5.73.32-6.08a1.02 1.02 0 0 0-.9-1.14 1.09 1.09 0 0 0-1.15.94Zm-9.75 5.19a1 1 0 0 0-.82-1.52c-2.34-4.25-2.85-4.23-3.4-4.23-.7.02-1.3.05-2.95 6.35a6.68 6.68 0 0 1-.89.33 1.03 1.03 0 0 0-.58 1.32 1.05 1.05 0 0 0 .9.64c-.12.47-.25.98-.36 1.5a1.02 1.02 0 1 0 1.98.46c.22-.89.44-1.82.69-2.74 1.09-.4 2.45-.9 3.56-1.26.65 1.2 1.32 2.51 1.94 3.74a1.01 1.01 0 1 0 1.8-.92c-.71-1.42-1.31-2.65-1.87-3.67Zm-4.79-.3c.3-1.02.56-1.93.8-2.6.32.51.7 1.18 1.14 1.94-.62.2-1.3.42-1.94.67Zm-5.59-1.77-.15.02-.11-2.76a1.03 1.03 0 1 0-2.05.08l.13 3.21-2.87.83v-3.14a1.02 1.02 0 0 0-1.03-1.03 1 1 0 0 0-1.02 1.03v3.74c-.38.1-.69.2-.89.26a1.01 1.01 0 1 0 .6 1.94l.29-.09v1.9a1.02 1.02 0 0 0 1.02 1.02 1 1 0 0 0 1.03-1.02v-2.5l2.96-.87.18 3.88a1.02 1.02 0 0 0 1 .98h.04a1.02 1.02 0 0 0 .98-1.07l-.2-4.34c.9-.14 1.27-.58 1.23-1.25a1 1 0 0 0-1.14-.82Zm-10.17 3.96a49.45 49.45 0 0 1-8.49.67c-.69-.04-1.51-.42-1.63-.78-.06-.18.12-.73 1.12-1.58 3.07-2.58 4.74-3 5.83-3.1a.73.73 0 0 1 .4.05 1.02 1.02 0 0 0 1.96-.54 2.18 2.18 0 0 0-2.51-1.53c-1.4.1-3.45.62-6.97 3.56-1.56 1.3-2.14 2.56-1.74 3.79.5 1.47 2.4 2.16 3.74 2.16 2.03 0 7.49-.27 8.96-.78a1.02 1.02 0 0 0 .64-1.3 1.06 1.06 0 0 0-1.31-.62Zm87.88-29.53c-2.94.18-8.62 6.44-11.94 10.67a2.98 2.98 0 0 1-.34-1.23c0-1.78 3.37-7.12 3.99-8.48.67-1.4-.09-3.25-.91-2.58-1.58 1.29-6.64 7.17-6.62 12.65a9.6 9.6 0 0 0 1.05 4.18c-1.14 3.68-3.9 11.85-3.8 16.82.04 2.56 2.64 5.08 4.18 4.74.6-.13.71-3.5 1.5-5.77 1.08-3.27 2.84-9.26 3.44-11.82 6.86.49 13.88-6.55 13.88-12.23 0-5.63-3.37-7.01-4.43-6.95Zm.33 4.05c.93 0 1.3.94 1.3 2.34.01 4.21-5.09 7.7-8.72 7.64 2.45-4.3 6.08-10.02 7.42-9.98Zm-31.7-3.07c0 1.56 3.08 2.16 3.15 2.58a9.09 9.09 0 0 1-.58 2.52c-.18.54-2.36.71-2.52 2.23-.04.35.54.89.45 1.31-.36 1.27-1.38 3.9-1.38 5 0 1.66 1.24 5.4 4.67 5.3 5.41-.19 10.27-3.95 10.34-4.62.1-1-1.36-2.16-2.4-2.16s-6.9 1.32-7.3.96c-.39-.36.33-3.74 1.08-3.96.74-.25 5.3-.16 6.06-.2 2.14-.12 1.74-2.99.42-3.1-.66-.07-4.8-.07-5.05-.45-.22-.38.07-2.3.53-2.5.94-.4 7.24-.55 7.71-.68a2 2 0 0 0 1.56-1.3c.2-.66-2.18-3.4-5.15-3.1-5.03.54-11.58.52-11.58 2.16Zm-8.23-4.88c-.63 0-.74.67-.74 1.36 0 2.1 2.9 9.4 2.92 12.19 0 .57-.05 1.62-.49 1.73-.69.2-6.75-10.84-9.27-11.02-2.58-.18-3.96 10.84-3.96 13.56s.5 4.54 2.5 4.52c3 0 1.44-11.02 2.64-11.02.9 0 5.77 10.06 8.49 10.06 2.94 0 4.68-4.32 4.68-7.1-.05-6.43-4.3-14.27-6.77-14.27Zm-20.29 2.65c-2.16 0-13.12.27-13.1 6.37 0 3.08 3.38 3.3 6.77 3.39 1.18.02 2.38.04 3.43.15 3.32.34 7.35 1.4 7.35 2.5 0 2.43-8.78 3.4-10.58 3.4-3.72 0-3.8-1.06-3.8-1.62a1.81 1.81 0 0 1 2-1.47c1.4 0 4.27 1.78 6.25 1.76 1.98 0 3.63-.9 3.63-1.78 0-1.54-5.97-2.34-8.28-2.4h-.32c-2.13.01-5.2.88-5.19 4.1 0 1.66 2.74 5.58 10.36 5.56 7.53-.02 9.42-4.3 9.42-6.5-.02-5.37-5.1-5.97-9.5-6.35-3.33-.26-6.9-.44-6.9-1.18.03-2.45 16.47-.64 16.47-3.96-.03-1.98-5.15-1.96-8.02-1.96Zm-2.87-15.48a4.72 4.72 0 0 0-3.88-1.54 3.92 3.92 0 0 0-2.94 1.94 3.68 3.68 0 0 0-.44 1.6h-.07a5.56 5.56 0 0 0-3.59-1.69 3.55 3.55 0 0 0 .96-2.54 3.59 3.59 0 0 0-1.71-2.83 4.48 4.48 0 0 0-5.82.87 3.37 3.37 0 0 0-.5 3.32 3.91 3.91 0 0 0 2.26 2.18c-3.07 1.5-4.9 4.23-4.87 5.97 0 1.76 1.31 4.81 6.61 4.9 3.1.05 7.73-2.98 9.07-5.99a3.59 3.59 0 0 0 1.42.47 4.08 4.08 0 0 0 3.36-.9 3.86 3.86 0 0 0 1.27-3.11 4.16 4.16 0 0 0-1.13-2.65Zm-15.75 9.13c1.63-1.82 5.52-5.25 7.44-5.25a1.35 1.35 0 0 1 1.47 1.36c0 2.29-4.72 4.18-6.75 4.18a7.57 7.57 0 0 1-2.16-.28Zm2.43-5.83a18.94 18.94 0 0 0-4.72 3.9c-.52-1.5 1.51-3.36 4.72-3.9Zm-.8 12.11c-2.14 0-2.18 8.62-2.25 11.76-.16 7.17.91 8.04 2.83 8.02 1.71 0 2.3-.2 2.14-6.21-.27-11.36-1.05-13.56-2.72-13.56ZM71.2 98.4a62.5 62.5 0 0 0-6.39.46 18.85 18.85 0 0 0-4.23.96c-1.58.7-3.05 2.39-3.05 3.77-.02 1.31 1.51 1.42 2.45 1.42s1.78-.09 1.78-.62c0-.78-1.25-.63-1.25-1.4 0-.9 4.81-1.1 7.22-1.12 20.62-.06 44.36 14.23 44.4 26.35.03 9.42-12.22 11.53-18.97 11.53a37.14 37.14 0 0 1-6.95-.67c-.08-3-.26-9.28-.35-13.27.78-.02 1.51-.02 2.14-.02 5-.02 11.55 1.76 11.58 2.92 0 1-1.74 1.69-1.74 2.62 0 .72 1.63.58 3 .7.25.02 3.08-1.57 3.08-4.04 0-3.3-4.16-7.17-18.13-7.17-.13-3.7-.69-9.55-2.78-9.53-1.76 0-2.25 6.44-2.4 10-7.53 1.14-14.24 4.2-14.24 7.22 0 2.47 5.4 8.68 14.1 12.47.16 2.78.7 4.72 3.16 4.7 1.8 0 2.43-1.34 2.61-2.72a37.23 37.23 0 0 0 9.1 1.14c12.66-.05 22.8-6.8 22.77-16.06-.02-12.4-25.1-30.27-46.9-29.64Zm-3.38 30.89c0-2.16 6.57-2.99 12.65-3.3-.05 3.38-.1 8.26-.07 11.51-7.5-2.6-12.58-6.81-12.58-8.21Z" fill="#fff"/><path data-name="Path 4146" d="M200.73 128.36c.02 4.21-5.08 7.7-8.71 7.64 2.47-4.3 6.1-10 7.42-9.98.93 0 1.29.94 1.29 2.34Zm-64.39 2.27c-1.04-.1-2.25-.1-3.43-.15l-.02.55c2.32.07 8.29.87 8.29 2.41 0 .9-1.65 1.76-3.63 1.78-1.99 0-4.86-1.76-6.26-1.76s-2 .94-2 1.47.09 1.63 3.8 1.63c1.8 0 10.6-.98 10.58-3.4.03-1.1-4-2.2-7.32-2.53Zm2.9-9.9c2.9-.03 8-.05 8.02 1.95 0 3.34-16.41 1.54-16.46 3.97-.02.73 3.57.91 6.88 1.18 4.44.38 9.51.98 9.51 6.34 0 2.2-1.89 6.49-9.42 6.5-7.63.03-10.35-3.9-10.35-5.56-.02-3.21 3.05-4.08 5.19-4.1h.3l.03-.56c-3.4-.09-6.77-.33-6.77-3.38-.04-6.09 10.91-6.33 13.07-6.35Zm58.17-3.4a12.29 12.29 0 0 0-7.88.6 15.08 15.08 0 0 0-3.76 2.3 9.28 9.28 0 0 0-5.97-2.34c-2.3.12-11.7 1.2-14.1 2.48-1.34-2.34-3.39-4.95-5.9-5.15a3.46 3.46 0 0 0-3.05 1.36c-.98 1.34-.91 3.16-.6 5.17-3.59-3.63-11.65-3.85-16.77-3.9-4.88-.02-11.25 1.22-13.03 2.2a22.83 22.83 0 0 0 6.61-5.6 6.5 6.5 0 0 0 6.02-2.64 6.68 6.68 0 0 0 .33-6.82 7.3 7.3 0 0 0-4.47-3.63 6.6 6.6 0 0 0-5.97 1.18 5.68 5.68 0 0 0-1.3-3.05 6.58 6.58 0 0 0-2.67-1.98 7 7 0 0 0-6.81.91 6.25 6.25 0 0 0-2.18 3.19 5.87 5.87 0 0 0 .55 4.4l-.02.03c-1.91 1.7-3.6 4.23-3.45 6.9a61.73 61.73 0 0 0-14.84-10.63c-5.03-2.61-14.68-6.6-24.59-6.82-2.91-.07-9.42.2-12.38 1.1-6.3 1.88-6.92 6.47-6.23 8.45.75 2.23 3.36 3.1 6.7 2.52a3.55 3.55 0 0 0 2.82-2.85 50 50 0 0 1 15.86 1.58 48.55 48.55 0 0 0-2.47 12.54 39.56 39.56 0 0 0-8.5 2.76c-2.26 1.1-4.7 2.67-5.58 5.15-.93 2.65.6 5.23 2.25 7.23a37.26 37.26 0 0 0 11.72 8.82c.24 1.43.89 4.39 3.92 5.37a5.48 5.48 0 0 0 6.25-2 43.97 43.97 0 0 0 7.6.69l.02 3a6.77 6.77 0 0 0 6.73 6.78h75.98c.96 2 2.9 4.36 5.12 4.78 4 .78 4.48-2.91 4.68-4.1a26.1 26.1 0 0 1 .8-3.65l2.92-9.8a18.09 18.09 0 0 0 7.53-3.1 18.35 18.35 0 0 0 5.05-5.5 12.56 12.56 0 0 0 1.6-9.35c-1-5.39-6.19-7.97-8.55-8.57ZM186.25 153c-.78 2.27-.91 5.64-1.49 5.77-1.56.34-4.14-2.18-4.19-4.74-.09-4.97 2.67-13.14 3.81-16.82a9.6 9.6 0 0 1-1.05-4.18c-.02-5.48 5.04-11.36 6.62-12.65.82-.67 1.56 1.18.91 2.58-.62 1.33-4 6.68-3.99 8.48a2.98 2.98 0 0 0 .34 1.23c3.32-4.23 9-10.49 11.94-10.67 1.07-.07 4.43 1.31 4.43 6.97.02 5.68-7.02 12.7-13.88 12.23-.6 2.54-2.36 8.53-3.45 11.8Zm-3.32-27.84c-.46.12-6.77.3-7.7.7-.47.2-.76 2.11-.54 2.49.25.38 4.39.4 5.06.44 1.31.11 1.71 2.99-.42 3.1-.76.05-5.33-.02-6.06.2-.74.25-1.47 3.61-1.1 3.97.4.35 6.26-.96 7.3-.96s2.52 1.16 2.41 2.16c-.07.67-4.92 4.43-10.33 4.61-3.43.11-4.68-3.6-4.68-5.3 0-1.1 1.05-3.7 1.38-4.99.11-.42-.47-.96-.44-1.31.15-1.52 2.33-1.67 2.51-2.23a9.96 9.96 0 0 0 .58-2.52c-.06-.42-3.14-1.04-3.14-2.58 0-1.65 6.55-1.63 11.58-2.16 2.94-.33 5.33 2.43 5.15 3.1a1.97 1.97 0 0 1-1.56 1.3Zm-7.26 29.25a24.77 24.77 0 0 0-6.77.35c-1.29.23-2.49-.33-2.49-1.87l-.13-7.46a1 1 0 0 1 1-1.02 1.02 1.02 0 0 1 1.02 1l.13 7.37a.2.2 0 0 0 .11-.02 27.08 27.08 0 0 1 7.33-.36 1.04 1.04 0 0 1 .91 1.11 1 1 0 0 1-1.1.9Zm-22.56-25.01c-1.2 0 .36 11.02-2.65 11.02-2.02 0-2.49-1.8-2.49-4.52s1.36-13.74 3.96-13.56c2.52.17 8.58 11.22 9.27 11.02.44-.13.49-1.16.49-1.74 0-2.8-2.9-10.09-2.92-12.18 0-.69.11-1.36.74-1.36 2.47 0 6.72 7.84 6.77 14.26 0 2.78-1.72 7.1-4.68 7.1-2.72.02-7.6-10.04-8.49-10.04Zm5.77 24.87a2.67 2.67 0 0 1-2.18-.47 9.39 9.39 0 0 1-.71-3.16 1.12 1.12 0 0 1-.05-.26v-.05a66 66 0 0 1-.33-3.76 1.25 1.25 0 0 1 .4-.96c.49-.49 1.22-.49 2.45-.49 1.24.02 4.14-.15 4.52-.2a1.03 1.03 0 0 1 1.13.67 1.01 1.01 0 0 1-.62 1.3c-.38.13-4.23.26-5.05.26h-.74c.04.53.07.76.16 1.6 1.64-.07 3.74-.22 4.67-.38a.96.96 0 0 1 .14 1.92 33.76 33.76 0 0 1-4.57.42l.22 1.6a22.41 22.41 0 0 0 5.02-.58c.55-.11 1.02-.13 1.29.36a1.2 1.2 0 0 1-.31 1.49c-1.05.7-3.26.5-5.44.7Zm-8.88-2-.16-.13c-.45-.42-1.11-1.14-1.83-1.9-.26-.26-.55-.6-.86-.9.06 1.28.17 3.02.29 4.6a1.02 1.02 0 0 1-.94 1.1h-.07a.98.98 0 0 1-1-.94s-.13-1.74-.24-3.5c-.23-3.63-.25-4.3.67-4.57.75-.22 1.04.07 3.63 2.8.66.72 1.35 1.46 1.75 1.84l.16.13c.22.2.53.51.87.8l-.65-6.28a1.02 1.02 0 0 1 2.03-.22c.02.26.71 6.66.76 7.86a1.3 1.3 0 0 1-.74 1.36c-.98.46-1.98-.45-3.67-2.05Zm-6.73-1.51c-.02 1.74-.02 3.18-.85 3.67a1.29 1.29 0 0 1-1.26.03c-.5-.25-1.07-.96-3.52-4.24-.32-.4-.65-.86-.98-1.29-.03 2.12.04 5.04.06 5.55a1.02 1.02 0 0 1-1.98.44 28.7 28.7 0 0 1-.13-4.4c-.02-4.48.06-4.8.8-5.09.82-.33 1.31.32 2.07 1.3.49.62 1.11 1.44 1.76 2.31.6.8 1.38 1.83 1.98 2.6.02-1.68.27-6.7.31-7.16a1.02 1.02 0 0 1 2.03.24c-.02.31-.27 4.32-.3 6.04Zm-10.38-38.83a3.27 3.27 0 0 1-1.42-.46c-1.34 3-5.97 6.03-9.07 5.99-5.3-.1-6.61-3.14-6.61-4.9 0-1.74 1.82-4.48 4.88-5.97a3.98 3.98 0 0 1-2.28-2.18 3.42 3.42 0 0 1 .52-3.32 4.46 4.46 0 0 1 5.8-.87 3.7 3.7 0 0 1 1.72 2.83 3.58 3.58 0 0 1-.95 2.54 5.51 5.51 0 0 1 3.58 1.69h.07a3.4 3.4 0 0 1 .44-1.6 3.92 3.92 0 0 1 2.94-1.94 4.72 4.72 0 0 1 3.88 1.54 4.27 4.27 0 0 1 1.13 2.67 3.86 3.86 0 0 1-1.26 3.12 4.15 4.15 0 0 1-3.37.87Zm-1.02 42.27c-.63-1.22-1.3-2.54-1.94-3.74-1.11.36-2.47.87-3.56 1.27-.25.91-.47 1.85-.7 2.74a1.02 1.02 0 0 1-1.97-.47l.35-1.49a1.04 1.04 0 0 1-.89-.64 1 1 0 0 1 .58-1.32l.89-.33c1.65-6.28 2.25-6.3 2.94-6.35.53-.02 1.05-.02 3.4 4.23a1.02 1.02 0 0 1 .94.76 1 1 0 0 1-.1.76c.55 1.02 1.15 2.24 1.88 3.67a1.02 1.02 0 0 1-.44 1.36 1 1 0 0 1-1.38-.44ZM120 132.41c.06-3.14.1-11.75 2.25-11.75 1.67 0 2.45 2.2 2.71 13.58.16 6.01-.44 6.21-2.13 6.21-1.92 0-2.99-.84-2.83-8.03Zm1.53 21.56a1.02 1.02 0 0 1-.98 1.07h-.04a1 1 0 0 1-1-.98l-.18-3.87c-.89.26-1.91.55-2.96.87v2.49a1.02 1.02 0 0 1-1.03 1.02 1 1 0 0 1-1.02-1.02v-1.9l-.3.1a1.01 1.01 0 0 1-.6-1.94l.9-.27v-3.74a1.02 1.02 0 0 1 1.02-1.02 1 1 0 0 1 1.03 1.02v3.14c.96-.29 1.98-.58 2.87-.82l-.13-3.21a1.02 1.02 0 0 1 .98-1.07 1.04 1.04 0 0 1 1.07.98l.1 2.76a.43.43 0 0 1 .16-.02.99.99 0 0 1 1.16.85c.05.64-.33 1.09-1.22 1.24l.17 4.32Zm-35.32-11c-.2 1.38-.8 2.72-2.6 2.72-2.47.02-3.01-1.92-3.16-4.7-8.73-3.79-14.1-10-14.1-12.47-.03-3.03 6.68-6.08 14.23-7.22.13-3.54.64-9.97 2.4-10 2.1 0 2.65 5.84 2.79 9.54 13.96 0 18.12 3.87 18.12 7.17 0 2.49-2.82 4.07-3.07 4.03-1.4-.1-3 .02-3-.7 0-.95 1.73-1.64 1.73-2.62 0-1.18-6.57-2.94-11.58-2.92-.62 0-1.36 0-2.14.02.09 3.97.25 10.27.36 13.28a37.14 37.14 0 0 0 6.95.67c6.75-.03 19.02-2.15 18.97-11.55-.02-12.1-23.76-26.4-44.38-26.34-2.4.03-7.22.23-7.22 1.12 0 .78 1.25.62 1.25 1.4 0 .55-.85.62-1.78.62s-2.47-.11-2.45-1.42c0-1.38 1.47-3.08 3.05-3.77a17.69 17.69 0 0 1 4.23-.96 62.5 62.5 0 0 1 6.4-.46c21.8-.6 46.85 17.23 46.9 29.66.01 9.27-10.12 16.01-22.77 16.06a37.26 37.26 0 0 1-9.13-1.16Zm16.73 11.23c-1.34 0-3.25-.7-3.74-2.16-.4-1.2.17-2.48 1.73-3.79 3.52-2.94 5.57-3.45 6.97-3.56a2.16 2.16 0 0 1 2.52 1.53 1.02 1.02 0 0 1-1.96.54.73.73 0 0 0-.4-.05c-1.1.1-2.76.52-5.84 3.1-1 .85-1.18 1.38-1.11 1.58.11.36.94.74 1.63.78a49.45 49.45 0 0 0 8.48-.66 1.02 1.02 0 0 1 .65 1.93c-1.45.49-6.9.76-8.93.76Zm25.12-45.07c-1.92 0-5.81 3.43-7.44 5.25a7.52 7.52 0 0 0 2.14.3c2.03 0 6.75-1.9 6.75-4.2a1.31 1.31 0 0 0-1.45-1.36Zm-1.05 40.2 1.92-.67a60.4 60.4 0 0 0-1.14-1.94c-.2.66-.49 1.57-.78 2.6Zm-8.7-36.89a19.35 19.35 0 0 1 4.71-3.9c-3.18.54-5.2 2.4-4.71 3.9Zm-50.5 16.84c0 1.4 5.1 5.59 12.6 8.24 0-3.28.01-8.13.06-11.52-6.08.3-12.67 1.11-12.65 3.28Z" fill="#288fba"/></g></svg>